<svg id="Layer_1" data-name="Layer 1" xmlns="http://www.w3.org/2000/svg" viewBox="0 0 320.73 314.55"><defs><style>.cls-1{fill:#fcfcfc;}.cls-2{fill:none;stroke:#fcfcfc;stroke-miterlimit:10;stroke-width:2px;}</style></defs><path class="cls-1" d="M941.66,451.94,799.37,697S882.51,522,941.66,451.94Z" transform="translate(-799.37 -382.39)"/><path class="cls-1" d="M1118,668.51q-20.84,10.95-42,11a78.88,78.88,0,0,1-26.66-4.59,108.39,108.39,0,0,1-24.18-12.18,134.73,134.73,0,0,1-21-17.48,186.88,186.88,0,0,1-17.48-20.47Q971.82,603.92,960,585.37t-18.54-30.89c-.7-1.65,0-2.59,2.12-2.82a115.82,115.82,0,0,0,29.13-6.89,89.66,89.66,0,0,0,22.42-12.18,58.44,58.44,0,0,0,14.3-15.36c3.4-5.53,5.12-10.88,5.12-16.06q0-15.89-15.36-22.07t-43.25-6.18c-1.21,0-5.83.73-6.94,1.72L945.64,478c.07,0,6.83-.76,6.91-.77,2.58-.18,4.55-.42,6.91-.42q10.23,0,16.94,2.48a32.43,32.43,0,0,1,10.77,6.18,19.88,19.88,0,0,1,5.65,8.47,28.51,28.51,0,0,1,1.59,9,39.61,39.61,0,0,1-5.47,21,43.78,43.78,0,0,1-15.18,14.83,74.61,74.61,0,0,1-23,8.65,139.38,139.38,0,0,1-29.13,2.82c-.71,0-1.06.48-1.06,1.42q3.18,5.28,8,13.59t10.06,17.12q5.29,8.82,10.24,17.12t8.47,14a308.48,308.48,0,0,0,23.83,32.48,118.81,118.81,0,0,0,24.19,21.89,93.7,93.7,0,0,0,27.89,12.54q15.18,4,35.3,4a91.76,91.76,0,0,0,26.48-3.7,130,130,0,0,0,23.66-9.72,1.66,1.66,0,0,0,1.41-1.76C1120.1,667.81,1119.4,667.57,1118,668.51Z" transform="translate(-799.37 -382.39)"/><path class="cls-2" d="M966.32,385.49s-42.76,47.39-57.57,72.22l10.69,5.91L899.7,471A288.87,288.87,0,0,0,875,509.68l5.76,7.4-10.27,3.29s-8.65,14.38-25.1,54.08l5.76,7.61L838,587s-9.47,27.57-6.31,45.34c0,0,16.41,6.41,48-22l-9.11-9.47L885.31,604s15.78-16.14,23.35-48.46l-10-8.34,11.12.82s20.33-30.78,27.9-50.19l-10.1-3L939,489.18S955.2,464.81,966.32,385.49Z" transform="translate(-799.37 -382.39)"/></svg>